<svg xmlns="http://www.w3.org/2000/svg" width="262" height="267" viewBox="0 0 262 267"><g transform="translate(-133 -83)"><path d="M13,0H249a13,13,0,0,1,13,13V170a0,0,0,0,1,0,0H0a0,0,0,0,1,0,0V13A13,13,0,0,1,13,0Z" transform="translate(133 83)" fill="#a2cbdd"/><g transform="translate(167 106)" fill="#2e393d" stroke="#a2cbdd" stroke-width="1"><rect width="194" height="125" stroke="none"/><rect x="0.5" y="0.5" width="193" height="124" fill="none"/></g><path d="M0,0H262a0,0,0,0,1,0,0V76a21,21,0,0,1-21,21H21A21,21,0,0,1,0,76V0A0,0,0,0,1,0,0Z" transform="translate(133 253)" fill="#8cbed4"/></g></svg>